<?xml version="1.0" encoding="UTF-8" standalone="no"?>
<!-- Created with Inkscape (http://www.inkscape.org/) -->

<svg
   width="90.430313mm"
   height="90.982674mm"
   viewBox="0 0 90.430313 90.982674"
   version="1.1"
   id="svg5"
   xml:space="preserve"
   inkscape:version="1.2.1 (9c6d41e410, 2022-07-14)"
   sodipodi:docname="cover_new_svg.svg"
   xmlns:inkscape="http://www.inkscape.org/namespaces/inkscape"
   xmlns:sodipodi="http://sodipodi.sourceforge.net/DTD/sodipodi-0.dtd"
   xmlns="http://www.w3.org/2000/svg"
   xmlns:svg="http://www.w3.org/2000/svg"><sodipodi:namedview
     id="namedview7"
     pagecolor="#ffffff"
     bordercolor="#000000"
     borderopacity="0.25"
     inkscape:showpageshadow="2"
     inkscape:pageopacity="0.0"
     inkscape:pagecheckerboard="0"
     inkscape:deskcolor="#d1d1d1"
     inkscape:document-units="mm"
     showgrid="false"
     inkscape:zoom="1.0179639"
     inkscape:cx="-27.997063"
     inkscape:cy="46.661771"
     inkscape:window-width="1920"
     inkscape:window-height="1001"
     inkscape:window-x="-9"
     inkscape:window-y="-9"
     inkscape:window-maximized="1"
     inkscape:current-layer="layer1" /><defs
     id="defs2" /><g
     inkscape:label="Layer 1"
     inkscape:groupmode="layer"
     id="layer1"
     transform="translate(-66.112774,-63.679834)"><path
       style="fill:#000000;stroke-width:0.0846667"
       d="m 66.112774,154.21773 c 0,-0.46814 0.137778,-0.99854 0.621237,-2.39156 0.161613,-0.46567 0.333004,-0.99907 0.380869,-1.18533 0.56478,-2.19787 1.253886,-5.30794 1.416367,-6.39234 0.07326,-0.48895 0.189531,-1.2319 0.258377,-1.651 0.06885,-0.4191 0.178193,-1.08585 0.242993,-1.48166 0.330387,-2.01809 0.682074,-3.12859 1.272496,-4.0181 0.377317,-0.56845 1.070075,-1.21356 1.571741,-1.46363 0.533079,-0.26573 2.496073,-1.12227 2.571977,-1.12227 0.03498,0 0.571419,-0.24765 1.192093,-0.55034 0.620674,-0.30268 1.175513,-0.55033 1.232976,-0.55033 0.05746,0 0.346326,-0.13294 0.641917,-0.29541 0.295591,-0.16248 0.908355,-0.43146 1.361698,-0.59774 0.453338,-0.16628 0.938558,-0.34453 1.078258,-0.39611 0.1397,-0.0516 0.2921,-0.12137 0.33867,-0.15509 0.0466,-0.0337 0.30004,-0.10546 0.56328,-0.15944 0.49969,-0.10246 0.60664,-0.14028 2.40005,-0.84871 2.06277,-0.81483 2.41249,-0.93733 3.51087,-1.22975 1.26411,-0.33655 2.02172,-0.69254 2.78653,-1.30935 1.4209,-1.14594 2.29008,-1.57466 5.32745,-2.62773 1.35644,-0.47028 1.76973,-0.85714 2.51489,-2.35406 0.69995,-1.40609 0.94983,-2.32002 1.1506,-4.20828 0.10393,-0.97743 0.0573,-1.66333 -0.13982,-2.05855 -0.0762,-0.15275 -0.11665,-0.36498 -0.0899,-0.47164 0.0616,-0.24526 -0.35595,-1.03492 -0.87897,-1.66247 -0.20955,-0.25143 -0.87985,-0.97304 -1.48956,-1.60357 -0.60971,-0.63054 -1.2171,-1.33693 -1.34976,-1.56977 -0.13265,-0.23283 -0.43104,-0.70772 -0.66309,-1.05531 -0.35113,-0.52595 -1.07627,-1.95013 -1.6828,-3.30502 -0.57718,-1.28931 -0.95055,-2.44096 -1.02936,-3.175 -0.03,-0.2794 -0.10869,-0.86995 -0.17488,-1.31233 -0.0662,-0.44239 -0.16416,-1.12819 -0.21772,-1.524 -0.0858,-0.63436 -0.35572,-2.068675 -0.60692,-3.225335 -0.0628,-0.28898 -0.1467,-0.42576 -0.32648,-0.53195 -0.39819,-0.23522 -0.79832,-0.79897 -1.3294,-1.87305 -0.67297,-1.36101 -0.75876,-1.60958 -0.96427,-2.794 -0.1872,-1.07886 -0.19988,-1.45193 -0.11047,-3.25138 0.0599,-1.20632 -0.0311,-1.93553 -0.28912,-2.31708 -0.0758,-0.11208 -0.30349,-0.44808 -0.50596,-0.74666 l -0.36812,-0.54288 0.0482,-1.05833 c 0.0265,-0.58208 0.09,-1.40123 0.14099,-1.82033 0.13318,-1.0942 0.15375,-1.65161 0.0734,-1.98967 -0.26271,-1.10538 -0.42921,-2.34248 -0.45866,-3.40775 -0.0183,-0.66362 -0.0575,-1.4581 -0.087,-1.76551 -0.0426,-0.44302 -0.0151,-0.68882 0.13222,-1.18533 0.10226,-0.34453 0.24843,-0.70634 0.32483,-0.80403 0.0764,-0.0977 0.50553,-0.63215 0.95361,-1.18767 0.44809,-0.55553 0.94053,-1.21855 1.09432,-1.47338 0.55938,-0.92691 1.95469,-2.67982 2.62653,-3.29966 0.37854,-0.34925 0.96071,-0.91622 1.29369,-1.25994 0.57562,-0.59416 2.06779,-1.72698 2.9713,-2.25573 0.40366,-0.23623 0.45327,-0.24421 1.397,-0.22462 0.53816,0.0112 1.12724,0.0603 1.30907,0.10909 0.45043,0.12097 1.27083,0.0181 1.78607,-0.22387 1.384897,-0.65048 2.759397,-0.8606 3.433207,-0.52483 0.34895,0.17389 1.2273,0.21248 2.66279,0.11698 1.37329,-0.0914 1.71997,-0.0897 2.32833,0.0114 0.80123,0.13316 1.05985,0.22805 1.50574,0.55246 0.3545,0.25793 0.7379,0.42009 2.34659,0.99254 0.23284,0.0828 0.78529,0.28626 1.22767,0.45202 1.3158,0.49301 2.32293,0.72922 3.47133,0.81417 1.14881,0.085 1.66299,0.21143 2.17564,0.53505 0.18208,0.11494 0.60342,0.34615 0.93631,0.51379 0.33289,0.16764 0.74098,0.42397 0.90687,0.56962 0.31641,0.27782 0.97081,1.18521 1.52227,2.1108 0.43295,0.72665 0.74721,1.04518 1.89915,1.92485 0.53238,0.40654 1.10144,0.85347 1.26458,0.99317 0.16315,0.1397 0.4179,0.3302 0.56611,0.42333 0.32909,0.2068 1.27371,1.21569 1.62509,1.73567 0.31543,0.46677 0.72806,1.28395 0.87107,1.72505 0.0685,0.21129 0.11165,0.93455 0.12124,2.03199 0.0168,1.91649 0.19537,3.0389 0.62819,3.94761 0.11923,0.25032 0.14132,0.60531 0.14225,2.286 l 0.001,1.98968 0.28188,0.93133 c 0.22803,0.75342 0.29042,1.12542 0.32657,1.94734 0.0857,1.94786 -0.1957,3.97793 -0.78615,5.67174 -0.0651,0.18677 -0.11893,0.38843 -0.1196,0.44813 -6.8e-4,0.0597 -0.0645,0.25021 -0.14193,0.42334 -0.21264,0.47574 -0.36461,0.89539 -0.36603,1.01077 -6.8e-4,0.0568 -0.0917,0.30448 -0.20226,0.55033 -0.11054,0.24586 -0.27891,0.67641 -0.37417,0.95679 -0.36323,1.069125 -0.72443,1.885595 -1.13524,2.566075 -0.81663,1.35272 -2.21738,2.9214 -2.86224,3.20539 -0.37096,0.16336 -0.38477,0.18324 -0.49421,0.71107 -0.12309,0.59372 -0.59866,2.18554 -0.69341,2.32101 -0.0326,0.0466 -0.13979,0.30331 -0.23827,0.57055 -0.2194,0.59538 -0.68225,1.5228 -1.05689,2.11771 -0.15393,0.24443 -0.33183,0.57776 -0.39535,0.74074 -0.0635,0.16299 -0.18473,0.3872 -0.26936,0.49826 -0.13876,0.18208 -0.15387,0.39993 -0.15387,2.21814 v 2.01623 l 0.51803,0.53352 c 0.54129,0.55749 1.00597,1.20482 1.00597,1.40141 0,0.0633 0.14537,0.33205 0.32305,0.59726 0.17768,0.2652 0.5077,0.80603 0.73337,1.20185 0.22568,0.39582 0.60418,1.0106 0.84111,1.36619 0.23694,0.35558 0.60854,0.93433 0.82577,1.28609 0.46922,0.75982 0.65932,0.87433 2.31436,1.39408 3.80974,1.19642 4.82226,1.57621 6.94267,2.60415 0.6985,0.33862 1.4605,0.69942 1.69333,0.80178 0.66751,0.29346 2.39348,0.84001 3.09022,0.97856 0.34932,0.0695 1.20662,0.33402 1.90512,0.5879 1.54502,0.56157 2.73593,0.92948 3.39833,1.04986 0.63405,0.11523 3.66507,0.52208 4.22167,0.56667 2.99388,0.23986 3.18921,0.26923 3.99654,0.60095 0.39514,0.16237 0.57861,0.2965 0.74083,0.54164 0.1186,0.17921 0.21563,0.34892 0.21563,0.37713 0,0.0282 0.16522,0.26716 0.36715,0.53098 0.49652,0.64872 0.80204,1.38533 0.96322,2.32233 0.11638,0.67666 0.12161,1.01587 0.0388,2.51769 -0.0526,0.95462 -0.13865,1.96427 -0.19116,2.24367 -0.19862,1.05696 -0.0592,1.63686 0.75309,3.13266 0.10115,0.18627 0.3462,0.66252 0.54456,1.05834 l 0.36065,0.71966 0.0244,4.8895 0.0244,4.8895 h -6.39397 -6.39397 l -0.0567,-0.22592 c -0.0312,-0.12426 -0.0309,-0.97198 6.8e-4,-1.88383 0.0316,-0.91186 0.0931,-2.87711 0.13659,-4.36725 0.068,-2.32766 0.17862,-3.76063 0.38881,-5.03766 0.10127,-0.61522 0.39443,-2.00734 0.51706,-2.45534 0.0701,-0.25611 0.19243,-0.70261 0.27183,-0.99222 0.0794,-0.28961 0.17094,-0.55314 0.20342,-0.58561 0.0325,-0.0325 0.0591,-0.14571 0.0591,-0.25161 0,-0.10591 0.0381,-0.21611 0.0847,-0.24489 0.0466,-0.0288 0.0847,-0.13771 0.0847,-0.24206 0,-0.10436 0.0417,-0.23141 0.0926,-0.28235 0.0509,-0.0509 0.0759,-0.16333 0.0554,-0.24976 -0.035,-0.14802 -0.0408,-0.14731 -0.10029,0.0122 -0.10444,0.28022 -0.23238,0.58387 -0.31164,0.73968 -0.0411,0.0809 -0.0747,0.20521 -0.0747,0.27632 0,0.0711 -0.0342,0.19546 -0.0761,0.27632 -0.54021,1.04377 -0.76115,1.80485 -1.06267,3.66068 -0.10971,0.67522 -0.23989,1.38007 -0.28931,1.56633 -0.14884,0.56109 -0.27155,2.96793 -0.30214,5.92667 -0.0159,1.5367 -0.0331,3.14642 -0.0383,3.57717 l -0.009,0.78316 h -8.53722 c -4.69547,0 -8.55864,-0.0214 -8.58482,-0.0476 -0.0262,-0.0262 0.0627,-0.2643 0.19752,-0.52916 0.26087,-0.51252 0.6701,-1.59252 0.92036,-2.4289 0.0836,-0.2794 0.2741,-0.8509 0.42334,-1.27 0.14923,-0.4191 0.4416,-1.2954 0.64969,-1.94734 0.45988,-1.44072 0.7615,-2.29521 1.30006,-3.683 0.33348,-0.85934 0.85453,-2.37775 1.51754,-4.42231 0.0691,-0.21319 0.0276,-0.27624 -0.52995,-0.80434 -0.33273,-0.31516 -1.35935,-1.31596 -2.28139,-2.22401 -1.26138,-1.24224 -1.73517,-1.65732 -1.91364,-1.67653 -0.13047,-0.014 -0.71,0.0906 -1.28785,0.23256 -0.57785,0.14195 -1.08874,0.25673 -1.1353,0.25505 -0.13766,-0.005 0.44154,-0.23928 1.47518,-0.59683 0.53195,-0.184 1.01381,-0.37325 1.07079,-0.42055 0.057,-0.0473 0.36471,-0.0997 0.68382,-0.11653 0.93509,-0.0492 4.87264,-0.69997 4.94514,-0.81728 0.0825,-0.13351 -0.457,-1.17175 -0.92434,-1.77877 -0.1937,-0.2516 -0.52924,-0.72416 -0.74564,-1.05012 -0.21639,-0.32597 -0.6334,-0.95462 -0.92667,-1.397 -0.29327,-0.44239 -0.93514,-1.28059 -1.42639,-1.86267 -0.49124,-0.58208 -1.24756,-1.47743 -1.68073,-1.98967 -0.8909,-1.05353 -1.05745,-1.28833 -1.92176,-2.70933 -0.33989,-0.5588 -0.86576,-1.3947 -1.1686,-1.85755 -0.30285,-0.46286 -0.59105,-0.94863 -0.64045,-1.0795 -0.18479,-0.48959 -0.2367,-0.32985 -0.39037,1.20138 -0.0491,0.48895 -0.12222,1.0795 -0.16256,1.31234 -0.10764,0.62127 -0.33197,1.95087 -0.43568,2.58233 -0.0497,0.30268 -0.20005,1.00753 -0.33409,1.56633 -0.13403,0.5588 -0.30142,1.3589 -0.37198,1.778 -0.0706,0.4191 -0.29724,1.6002 -0.50373,2.62467 -0.20648,1.02447 -0.43788,2.22462 -0.51421,2.667 -0.0763,0.44238 -0.21449,1.14723 -0.30703,1.56633 -0.0925,0.4191 -0.22525,1.20015 -0.29492,1.73567 -0.16829,1.29351 -0.35201,2.37381 -0.60475,3.556 -0.11448,0.53552 -0.24533,1.20227 -0.29077,1.48167 -0.0454,0.2794 -0.13622,0.7366 -0.20173,1.016 -0.0655,0.2794 -0.23175,0.98425 -0.3694,1.56633 -0.13765,0.58208 -0.33294,1.51553 -0.43396,2.07433 -0.10103,0.5588 -0.25714,1.34902 -0.34693,1.75605 -0.0898,0.40703 -0.16324,0.8217 -0.16324,0.92151 0,0.0998 -0.0354,0.31924 -0.0787,0.48762 -0.0433,0.16839 -0.12362,0.53476 -0.17852,0.81416 -0.18079,0.92009 -0.43546,2.02294 -0.59842,2.59146 -0.0882,0.3077 -0.16035,0.64108 -0.16035,0.74083 0,0.15837 -0.0481,0.18137 -0.37889,0.18137 h -0.37888 l 0.0491,-0.27516 c 0.027,-0.15135 0.11802,-0.52282 0.20223,-0.8255 0.17746,-0.63787 0.42537,-1.76631 0.67895,-3.09034 0.0981,-0.51223 0.24919,-1.27423 0.33575,-1.69333 0.0866,-0.4191 0.24195,-1.23825 0.3453,-1.82033 0.18729,-1.05486 0.28943,-1.53422 0.53223,-2.49767 0.26086,-1.03509 0.3904,-1.62277 0.47591,-2.159 0.0483,-0.30268 0.11066,-0.67416 0.13863,-0.8255 0.0494,-0.26742 0.0426,-0.27517 -0.24344,-0.27517 -0.19499,0 -0.39515,-0.0801 -0.59318,-0.23752 -0.16439,-0.13064 -0.54909,-0.38385 -0.85488,-0.56269 -0.73877,-0.43204 -1.50837,-1.04867 -2.63719,-2.11299 -1.14531,-1.07988 -1.69359,-1.54181 -2.44058,-2.0562 -0.67802,-0.46691 -0.74442,-0.45254 -1.09238,0.23643 -0.32572,0.64491 -0.48855,1.55688 -0.48863,2.73664 -6e-5,0.79725 0.0278,1.04011 0.13249,1.15581 0.33036,0.36505 0.38296,1.05504 0.38272,5.02044 -2.6e-4,3.51793 -0.045,4.55342 -0.26198,6.06475 -0.0435,0.30268 -0.0982,0.96943 -0.12159,1.48167 -0.0234,0.51223 -0.0678,1.1123 -0.0986,1.3335 l -0.0561,0.40216 h -3.65126 -3.65126 l 0.10207,-1.3335 c 0.0561,-0.73342 0.14027,-1.6383 0.18697,-2.01083 0.0467,-0.37253 0.10876,-0.98213 0.1379,-1.35467 0.32549,-4.16091 0.79754,-6.81461 1.732,-9.73666 0.24749,-0.77392 0.26702,-0.9147 0.22729,-1.63838 -0.0503,-0.91617 -0.3038,-1.73636 -0.66505,-2.15182 l -0.23808,-0.2738 -0.74061,0.77033 c -0.40734,0.42369 -0.96835,1.07139 -1.24668,1.43934 -0.66144,0.8744 -1.107,1.42813 -1.52614,1.89666 -0.18746,0.20955 -0.645107,0.84929 -1.016987,1.42164 -0.95892,1.47585 -1.26499,1.50456 -1.40862,0.13215 -0.16532,-1.57977 -0.43876,-3.0579 -0.71024,-3.83938 -0.40614,-1.16907 -0.68148,-2.31217 -1.18294,-4.91108 -0.17858,-0.92546 -0.19303,-0.96109 -0.29207,-0.71966 -0.18075,0.44066 -0.31814,1.07287 -0.42319,1.94733 -0.0559,0.46567 -0.16045,1.01812 -0.23225,1.22767 -0.36593,1.06798 -0.74865,4.55475 -0.82711,7.53533 -0.0367,1.39584 0.16527,5.98613 0.30553,6.94267 0.0512,0.34925 0.1046,1.37795 0.11863,2.286 0.014,0.90805 0.0526,1.81292 0.0858,2.01083 l 0.0603,0.35983 h -0.38715 c -0.21294,0 -0.40599,-0.0305 -0.42902,-0.0677 -0.0521,-0.0843 -0.0744,-0.86448 -0.0608,-2.13359 0.006,-0.53552 -0.0688,-2.00237 -0.16559,-3.25967 -0.28937,-3.75931 -0.24814,-8.9334 0.0833,-10.45633 0.0456,-0.20955 0.0862,-0.62865 0.0903,-0.93133 0.004,-0.30269 0.046,-0.72179 0.0932,-0.93134 0.0472,-0.20955 0.11781,-0.57615 0.15688,-0.81467 0.0391,-0.23852 0.11634,-0.51834 0.17172,-0.62182 0.0554,-0.10347 0.15437,-0.61317 0.21999,-1.13265 0.16198,-1.2823 0.25904,-1.63445 1.05375,-3.82319 0.32921,-0.9067 0.51922,-1.82165 0.59041,-2.84306 0.0408,-0.58578 0.10079,-1.17091 0.13326,-1.30028 0.0539,-0.21474 0.0445,-0.22742 -0.10846,-0.14558 -0.27406,0.14667 -5.74849,5.45225 -7.6871,7.45 -0.51223,0.52786 -1.32149,1.28456 -1.79836,1.68156 -0.47686,0.39699 -0.84583,0.7561 -0.81992,0.79803 0.0259,0.0419 0.35892,0.2559 0.74003,0.4755 0.74724,0.43059 3.18685,2.22576 3.52284,2.59227 0.1708,0.1863 0.18115,0.22389 0.0617,0.22389 -0.26006,0 -1.18865,-0.47554 -1.73176,-0.88684 l -0.53351,-0.40405 -0.65182,0.62848 c -0.70442,0.6792 -1.97441,1.72991 -2.87968,2.38248 -0.3111,0.22425 -0.59363,0.45777 -0.62786,0.51892 -0.0342,0.0612 -0.01,0.29678 0.0546,0.52361 0.29549,1.04287 0.57786,2.43844 0.72325,3.5746 0.0873,0.68226 0.23719,1.48066 0.33307,1.77422 0.0959,0.29356 0.23124,0.84601 0.3008,1.22766 0.0696,0.38166 0.21778,1.01777 0.32938,1.41359 0.46469,1.64816 0.58206,2.10366 0.68719,2.667 0.0608,0.32597 0.17235,0.8136 0.24784,1.08363 0.0755,0.27003 0.13724,0.54625 0.13724,0.61383 0,0.10671 -1.35315,0.12287 -10.286999,0.12287 h -10.287 z m 42.925996,-15.76835 c 0,-0.6521 0.21931,-1.60467 0.51937,-2.2559 0.24746,-0.53705 0.25276,-0.57148 0.11934,-0.7751 -0.0768,-0.1172 -0.23286,-0.23649 -0.34683,-0.2651 -0.11397,-0.0286 -0.20721,-0.0865 -0.20721,-0.12855 0,-0.0776 -0.85598,-0.66664 -1.49016,-1.02537 l -0.34715,-0.19637 -0.48323,0.24859 c -0.58887,0.30293 -2.33166,1.56794 -2.33425,1.69433 -10e-4,0.0501 0.0895,0.17695 0.20125,0.2819 0.30149,0.28324 0.61862,1.06239 0.74418,1.82836 l 0.11103,0.67733 0.254,-0.016 c 0.1397,-0.009 0.54486,-0.0421 0.90037,-0.074 0.54197,-0.0486 0.73992,-0.0277 1.22553,0.12914 0.31854,0.10291 0.67522,0.23744 0.79263,0.29895 0.11741,0.0615 0.2422,0.0941 0.27731,0.0724 0.0351,-0.0217 0.0638,-0.24426 0.0638,-0.49458 z m 36.74534,-0.97921 c 0,-0.0959 -0.0381,-0.15078 -0.0847,-0.122 -0.0466,0.0288 -0.0847,0.10723 -0.0847,0.17433 0,0.0671 0.0381,0.122 0.0847,0.122 0.0466,0 0.0847,-0.0785 0.0847,-0.17433 z m 0.16933,-0.50094 c 0,-0.0865 0.0294,-0.16998 0.0653,-0.1855 0.0359,-0.0155 0.1722,-0.28227 0.3029,-0.59277 0.31574,-0.75006 1.41348,-2.71264 2.06884,-3.69876 0.28948,-0.43558 0.52633,-0.8261 0.52633,-0.86783 0,-0.28689 -0.45508,0.23166 -0.92214,1.05072 -0.11136,0.1953 -0.27328,0.47891 -0.35983,0.63025 -0.0866,0.15134 -0.23356,0.40851 -0.32669,0.5715 -0.0931,0.16298 -0.25172,0.43921 -0.35241,0.61383 -0.38468,0.66716 -0.83293,1.57334 -0.83293,1.68386 0,0.0634 -0.0381,0.11531 -0.0847,0.11531 -0.0466,0 -0.0847,0.11205 -0.0847,0.249 0,0.13695 -0.0381,0.27255 -0.0847,0.30133 -0.0466,0.0288 -0.0847,0.12853 -0.0847,0.22166 0,0.0931 0.0381,0.14579 0.0847,0.11701 0.0466,-0.0288 0.0847,-0.12311 0.0847,-0.20961 z m -37.51003,-4.25656 c -0.002,-0.78155 -0.0151,-0.85149 -0.127,-0.70348 -0.12779,0.16895 -0.18293,1.3998 -0.0679,1.51487 0.15587,0.15586 0.19733,-0.0168 0.19486,-0.81139 z m -0.16664,-1.63707 c 0.83217,-0.66706 1.58989,-1.42721 4.46578,-4.4801 1.44761,-1.5367 2.99754,-3.13039 3.44429,-3.54154 1.39179,-1.28089 3.59742,-4.04109 3.90937,-4.89234 0.10799,-0.29467 0.12993,-0.6252 0.10618,-1.59912 -0.059,-2.4187 0.0125,-4.65099 0.18167,-5.67266 0.0887,-0.53552 0.26005,-1.65947 0.38082,-2.49767 0.12078,-0.8382 0.25613,-1.7145 0.30078,-1.94733 0.0446,-0.23284 0.10521,-0.57574 0.13458,-0.762 0.0294,-0.18627 0.0896,-0.38463 0.13392,-0.44079 0.0443,-0.0562 0.0519,-0.14841 0.017,-0.20498 -0.0672,-0.10868 -0.16427,0.0787 -0.29073,0.5611 -0.0366,0.1397 -0.22424,0.7874 -0.41693,1.43933 -0.19269,0.65194 -0.46519,1.60281 -0.60557,2.11305 -0.30839,1.12098 -0.6027,1.69437 -1.23205,2.40043 -0.5837,0.65482 -1.33999,1.17186 -2.79296,1.90939 -0.61135,0.31032 -1.24,0.65047 -1.397,0.75588 -0.15699,0.10542 -0.43409,0.27852 -0.61577,0.38467 -0.18168,0.10616 -0.76568,0.52001 -1.29778,0.91966 -1.51393,1.13711 -3.70322,2.32763 -5.18756,2.82096 -1.01551,0.33751 -1.70725,0.44617 -2.40911,0.37844 -0.78535,-0.0758 -2.97051,-0.63823 -3.77155,-0.97076 -0.34925,-0.14498 -0.88265,-0.36327 -1.18534,-0.48508 -0.302677,-0.12182 -0.661397,-0.29849 -0.797147,-0.39262 l -0.24682,-0.17113 0.0623,0.20622 c 0.11674,0.38621 0.15213,1.81284 0.0629,2.53456 -0.13426,1.08557 -0.25369,1.92769 -0.36167,2.55012 -0.15589,0.89869 -0.15535,0.90009 1.144897,2.95037 0.41684,0.65729 1.07667,1.32413 2.40442,2.42996 0.54494,0.45385 1.39084,1.20986 1.87979,1.68002 0.73716,0.70884 2.10196,1.80245 3.04063,2.43648 0.23536,0.15897 0.21409,0.16832 0.9387,-0.41252 z m -2.032,-13.10942 c 0.68566,-0.14625 1.85,-0.55126 2.4253,-0.84362 0.23959,-0.12177 0.46231,-0.22139 0.49493,-0.22139 0.0326,0 0.16043,-0.0708 0.28404,-0.15735 0.1236,-0.0866 0.56763,-0.34031 0.98673,-0.56392 0.4191,-0.2236 0.94111,-0.54332 1.16001,-0.71048 1.70025,-1.29831 2.50125,-1.81547 4.02477,-2.59854 0.68744,-0.35333 1.48299,-0.80861 1.7679,-1.01172 1.05886,-0.75486 1.69235,-1.71161 2.0153,-3.04366 0.079,-0.32596 0.27063,-1.01176 0.42578,-1.524 0.15515,-0.51223 0.38495,-1.27423 0.51066,-1.69333 0.12571,-0.4191 0.33567,-0.9906 0.46659,-1.27 0.4737,-1.01097 0.55103,-1.61147 0.55061,-4.27567 -3.4e-4,-1.971335 -0.0267,-2.525925 -0.14427,-3.030015 -0.0791,-0.33936 -0.18515,-1.00611 -0.23557,-1.48167 -0.18111,-1.70831 -0.27045,-2.39743 -0.38101,-2.93897 -0.0618,-0.30269 -0.19667,-1.02659 -0.2997,-1.60867 -0.47039,-2.65732 -0.9008,-3.76212 -2.1605,-5.54567 -0.47295,-0.66962 -0.82148,-1.26559 -1.31212,-2.24366 -0.53947,-1.07542 -1.26611,-2.68176 -1.26611,-2.7989 0,-0.12949 -0.80911,-1.68137 -1.01274,-1.94244 -0.14395,-0.18455 -0.18727,-0.19801 -0.33818,-0.10511 -0.15623,0.0962 -0.17308,0.0863 -0.17308,-0.10084 0,-0.25658 -0.0452,-0.28484 -0.62746,-0.39248 -0.38643,-0.0714 -0.59107,-0.0573 -1.17505,0.0814 -0.38892,0.0924 -1.12353,0.21142 -1.63247,0.26456 -0.50895,0.0531 -1.0851,0.13168 -1.28035,0.17453 -0.51652,0.11335 -2.08403,0.09 -2.82427,-0.0421 -0.35159,-0.0627 -0.82784,-0.21028 -1.05833,-0.3279 -0.47776,-0.24381 -1.30327,-0.88393 -1.98541,-1.53954 -0.48822,-0.46924 -1.23013,-0.89126 -1.56683,-0.89126 -0.10904,0 -0.38499,-0.0431 -0.61323,-0.0958 -0.3316,-0.0765 -0.62634,-0.0671 -1.466957,0.0468 -1.11064,0.15051 -1.53075,0.28069 -3.16864,0.98185 -0.5588,0.23922 -1.18745,0.49453 -1.397,0.56735 -0.72079,0.25049 -2.65907,2.41335 -3.02544,3.37598 -0.20239,0.53179 -0.35887,1.21129 -0.44663,1.93949 -0.0505,0.4191 -0.16167,1.0668 -0.24703,1.43934 -0.0854,0.37253 -0.20172,1.00118 -0.25857,1.397 -0.0568,0.39581 -0.15347,0.92921 -0.21472,1.18533 -0.25664,1.07311 -0.30799,2.23725 -0.27449,6.223 0.0347,4.12836 0.0828,4.86718 0.44636,6.858 0.11055,0.605365 0.24366,1.405465 0.2958,1.777995 0.0521,0.37253 0.16665,1.17263 0.25449,1.778 0.0878,0.60537 0.18394,1.28786 0.21356,1.51666 0.0613,0.47346 0.43952,1.58893 0.81808,2.4127 0.14103,0.30688 0.34179,0.74847 0.44613,0.98131 0.50674,1.13075 0.88158,1.83983 1.32035,2.49766 0.26401,0.39582 0.54757,0.85302 0.63014,1.016 0.0826,0.16299 0.63062,0.79276 1.21788,1.39949 1.2633,1.30519 1.87967,2.01586 2.07355,2.39078 0.0778,0.15055 0.17105,0.27373 0.2071,0.27373 0.0361,0 0.3113,0.18006 0.61166,0.40013 1.282587,0.93975 4.081517,1.8845 6.303437,2.12767 0.0466,0.005 0.33232,-0.0436 0.635,-0.10812 z m 17.56221,-13.30011 c 0.79603,-0.37659 2.26738,-2.159 3.00466,-3.6399 0.517,-1.038425 1.22357,-3.088555 1.36357,-3.956405 0.16025,-0.99343 0.0115,-2.7888 -0.27554,-3.32492 -0.1744,-0.32576 -0.79082,-0.91584 -1.14019,-1.09146 -0.37105,-0.18652 -0.8577,-0.17077 -1.44036,0.0466 -1.00335,0.37431 -1.38291,0.77634 -1.89233,2.00432 -0.37376,0.90099 -0.63916,1.41284 -1.03598,1.99805 l -0.34052,0.50218 0.0179,2.50349 c 0.0149,2.082015 -0.006,2.617505 -0.12581,3.180815 -0.0791,0.37253 -0.16038,0.87091 -0.1807,1.1075 -0.033,0.38392 -0.0146,0.4448 0.17068,0.56622 0.54428,0.35663 1.25641,0.39595 1.87458,0.10351 z m -0.12087,31.5391 c 0.16415,-0.10608 0.254,-0.10608 0.254,0 0,0.0466 -0.0857,0.0841 -0.1905,0.0834 -0.15405,-0.001 -0.1662,-0.017 -0.0635,-0.0834 z"
       id="path248" /></g></svg>
