<?xml version="1.0" encoding="UTF-8" standalone="no"?>
<!-- Created with Inkscape (http://www.inkscape.org/) -->

<svg
   width="90.424004mm"
   height="91.947998mm"
   viewBox="0 0 90.424004 91.947998"
   version="1.1"
   id="svg5"
   xml:space="preserve"
   xmlns="http://www.w3.org/2000/svg"
   xmlns:svg="http://www.w3.org/2000/svg"><defs
     id="defs2" /><g
     id="layer1"
     transform="translate(-56.97364,-57.314369)"><path
       style="fill:#000000;stroke-width:0.0846667"
       d="m 58.251747,149.20446 c 0,-0.0313 0.05333,-0.36467 0.118515,-0.74083 0.06518,-0.37616 0.162079,-1.06493 0.215323,-1.5306 0.116588,-1.01963 0.217991,-1.43435 0.807375,-3.302 0.24982,-0.79163 0.516815,-1.68698 0.593323,-1.98966 0.07651,-0.30269 0.171701,-0.66464 0.211544,-0.80434 0.03984,-0.1397 0.09671,-0.46355 0.126365,-0.71966 0.02966,-0.25612 0.08849,-0.65617 0.130733,-0.889 0.04224,-0.23284 0.136663,-0.78529 0.209823,-1.22767 0.07316,-0.44238 0.168751,-0.99483 0.212424,-1.22767 0.04368,-0.23283 0.102813,-0.63288 0.13142,-0.889 0.02861,-0.25611 0.143919,-0.85184 0.25625,-1.32384 0.112332,-0.472 0.204715,-1.10065 0.205297,-1.397 9.23e-4,-0.47018 0.04849,-0.63043 0.373372,-1.25792 0.524035,-1.01213 1.039741,-1.48361 1.557359,-1.42382 0.173673,0.0201 0.23327,0.0785 0.252921,0.24788 0.02101,0.18116 -0.04942,0.2756 -0.385782,0.51725 -0.571698,0.41073 -0.945559,1.1894 -1.047687,2.18212 -0.04072,0.39582 -0.09337,0.77122 -0.116994,0.83422 -0.08139,0.21703 -0.307916,1.32597 -0.383042,1.87511 -0.09304,0.68011 -0.289783,1.85473 -0.460887,2.75167 -0.07107,0.37253 -0.167221,0.96308 -0.213679,1.31233 -0.04646,0.34925 -0.145281,0.8636 -0.219609,1.143 -0.07433,0.2794 -0.185292,0.7281 -0.246588,0.99711 -0.0613,0.26901 -0.246672,0.88068 -0.411947,1.35927 -0.392526,1.13663 -0.719586,2.44195 -0.8159,3.25629 -0.14475,1.22388 -0.253868,2.00286 -0.301635,2.15337 -0.03624,0.11417 -0.137902,0.1503 -0.422998,0.1503 -0.206412,0 -0.375295,-0.0256 -0.375295,-0.0569 z m 17.842894,-1.06493 c -0.01919,-0.617 -0.08609,-2.09338 -0.148674,-3.28083 -0.165819,-3.14642 4.9e-5,-7.05074 0.383068,-9.017 0.396159,-2.0337 0.705858,-2.49466 2.356042,-3.50675 0.347005,-0.21282 0.305375,-0.33996 -0.113329,-0.34609 -0.331702,-0.005 -1.622755,-0.46882 -1.837953,-0.6605 -0.536095,-0.47752 -0.01966,-1.16486 2.430334,-3.23464 0.597024,-0.50437 0.918115,-0.786 1.784676,-1.56535 0.310666,-0.2794 0.854159,-0.76674 1.20776,-1.08297 0.353601,-0.31624 0.938338,-0.92584 1.299413,-1.35467 0.683552,-0.81183 1.94282,-2.22392 2.875967,-3.22499 0.298704,-0.32045 0.524171,-0.60156 0.50104,-0.62469 -0.02313,-0.0231 -0.224497,0.0446 -0.447479,0.15054 -0.222983,0.10593 -0.81458,0.33448 -1.31466,0.50789 -0.640405,0.22208 -1.025516,0.41242 -1.30251,0.64376 -0.2163,0.18065 -0.575259,0.46181 -0.79769,0.62479 -0.517229,0.379 -0.955187,0.71952 -1.441013,1.12043 -0.212546,0.1754 -0.422096,0.319 -0.465666,0.31911 -0.04357,8e-5 -0.303436,0.15251 -0.577479,0.33867 -0.274043,0.18615 -0.580364,0.33846 -0.680711,0.33846 -0.416132,0 -1.247665,0.29218 -2.179997,0.76599 -0.54547,0.2772 -1.035811,0.50401 -1.089647,0.50401 -0.123041,0 -1.584462,0.59299 -2.176136,0.883 -0.244246,0.11972 -0.502258,0.21767 -0.573358,0.21767 -0.0711,0 -0.377796,0.11268 -0.681543,0.25041 -0.303747,0.13772 -0.759163,0.28865 -1.012033,0.3354 -0.252871,0.0467 -0.573122,0.14361 -0.711669,0.21526 -0.138547,0.0716 -0.32047,0.13072 -0.404275,0.13128 -0.0838,5.9e-4 -0.309713,0.091 -0.502018,0.20097 -0.372109,0.2128 -1.518416,0.59424 -2.148773,0.71502 -0.209136,0.0401 -0.901695,0.31235 -1.539021,0.60505 -1.136393,0.52192 -1.373375,0.5699 -1.477285,0.29912 -0.07443,-0.19395 0.12658,-0.38527 0.646392,-0.61524 0.256117,-0.11331 0.817946,-0.37385 1.248509,-0.57898 0.430564,-0.20513 0.836587,-0.37296 0.902275,-0.37296 0.06569,0 0.374184,-0.1143 0.685551,-0.254 0.311364,-0.1397 0.604658,-0.254 0.651763,-0.254 0.04711,0 0.279386,-0.0973 0.516181,-0.21625 0.553673,-0.27809 1.82141,-0.71367 2.079426,-0.71447 0.109655,-3.4e-4 0.376355,-0.0893 0.592667,-0.19778 0.216313,-0.10844 0.51486,-0.22133 0.663437,-0.25087 0.148577,-0.0296 0.529577,-0.17499 0.846667,-0.3232 0.877979,-0.4104 1.917257,-0.83441 2.049062,-0.83601 0.06483,-7.6e-4 0.581125,-0.24717 1.147325,-0.54754 0.956027,-0.50717 1.261141,-0.62378 2.100592,-0.80281 0.174783,-0.0373 0.460533,-0.16165 0.635,-0.27639 0.174467,-0.11474 0.469613,-0.30886 0.65588,-0.43139 0.186267,-0.12253 0.820041,-0.59572 1.408388,-1.05154 0.588346,-0.45581 1.197946,-0.92813 1.354667,-1.04959 0.156719,-0.12147 0.761195,-0.38249 1.343279,-0.58006 0.582083,-0.19757 1.153583,-0.41403 1.27,-0.48101 0.116416,-0.067 0.554566,-0.24896 0.973666,-0.4044 1.012001,-0.37532 1.143,-0.55287 1.143,-1.54911 0,-0.76752 0.05641,-0.9416 0.434881,-1.34204 0.258139,-0.27312 0.309433,-0.4966 0.49431,-2.15354 0.04416,-0.39582 0.118954,-0.87207 0.166201,-1.05833 0.158297,-0.62408 0.110889,-1.44071 -0.109397,-1.88446 -0.109637,-0.22085 -0.47913,-0.96956 -0.821095,-1.6638 -0.341966,-0.69424 -0.707571,-1.36424 -0.812457,-1.48889 -0.209045,-0.24844 -1.045776,-1.91216 -1.045776,-2.07938 0,-0.0573 -0.409575,-0.61991 -0.910167,-1.25023 -0.500591,-0.63031 -0.980365,-1.24634 -1.066164,-1.36894 -0.0858,-0.12261 -0.314399,-0.33709 -0.508,-0.47663 -0.697125,-0.50247 -1.266122,-1.39275 -1.484357,-2.32248 -0.198021,-0.843618 -0.422741,-1.871058 -0.517603,-2.366528 -0.05349,-0.2794 -0.186918,-0.9271 -0.296498,-1.43933 -0.201086,-0.93998 -0.471577,-2.8414 -0.468312,-3.29201 9.73e-4,-0.1342 0.07923,-0.36933 0.173898,-0.52252 l 0.172131,-0.27851 -0.171814,-0.28181 c -0.117012,-0.19193 -0.172213,-0.43035 -0.173063,-0.74748 -0.0024,-0.90105 -0.06669,-1.0735 -0.525699,-1.41045 -0.230534,-0.16922 -0.61549,-0.40688 -0.855458,-0.52812 -0.625664,-0.3161 -0.679976,-0.47459 -0.514368,-1.50097 0.0742,-0.45987 0.153987,-0.93733 0.177304,-1.06103 0.02903,-0.15401 -0.02698,-0.32699 -0.177719,-0.54882 -0.158875,-0.2338 -0.220111,-0.43322 -0.220111,-0.716792 0,-0.216079 -0.09106,-0.67396 -0.202359,-1.017513 -0.111297,-0.343552 -0.229822,-0.91039 -0.263388,-1.25964 -0.03436,-0.357471 -0.14494,-0.820019 -0.253023,-1.058333 -0.668013,-1.472924 -0.831861,-1.96354 -0.904824,-2.709333 -0.041,-0.4191 -0.08233,-0.81915 -0.09185,-0.889 -0.0463,-0.339835 0.13634,-2.563355 0.250366,-3.048 0.07121,-0.302684 0.134715,-0.988484 0.141113,-1.524 0.01019,-0.852934 -0.01322,-1.030958 -0.188764,-1.435699 -0.189545,-0.437015 -0.197124,-0.521183 -0.13998,-1.554419 0.06827,-1.234445 0.115884,-1.384114 0.78604,-2.470882 0.779316,-1.263791 1.55492,-2.145697 2.576384,-2.929499 0.721713,-0.553793 1.294843,-1.313825 2.149344,-2.85026 0.631189,-1.134907 1.335807,-1.823024 2.26124,-2.208282 0.352695,-0.146827 0.684378,-0.266959 0.737074,-0.266959 0.122093,0 0.72281,-0.186208 1.930821,-0.598511 1.518716,-0.518347 2.861477,-0.760618 4.716137,-0.850916 2.08763,-0.101641 1.93756,-0.103164 3.85727,0.03914 2.07954,0.154157 3.927793,0.495466 5.498403,1.015368 0.34925,0.115609 0.7874,0.251288 0.97367,0.301511 0.79463,0.214253 2.00391,0.603203 3.302,1.062051 0.32596,0.115222 0.76672,0.211113 0.97946,0.21309 0.37782,0.0035 1.22249,0.210051 1.3912,0.340176 0.0466,0.03592 0.44662,0.206847 0.889,0.379844 1.33593,0.522421 1.56877,0.67829 1.89005,1.265241 0.15535,0.2838 0.32888,0.702098 0.38562,0.929549 0.1548,0.6205 1.20443,1.745452 1.62859,1.745452 0.25192,0 1.19987,0.581362 1.64141,1.006646 0.2794,0.269114 0.70964,0.61492 0.95609,0.768456 0.49524,0.308533 0.76862,0.662211 1.24569,1.611564 0.1755,0.34925 0.46238,0.797863 0.6375,0.996918 0.50899,0.578545 0.62298,0.891988 0.63827,1.755083 0.0171,0.967346 0.0811,1.263108 0.37516,1.735333 0.1305,0.20955 0.30147,0.66675 0.37994,1.016 0.16976,0.75558 0.52422,1.898512 0.68795,2.218295 0.082,0.160109 0.11651,0.553414 0.11521,1.312333 -0.002,0.896317 -0.0308,1.147553 -0.16941,1.45295 -0.14848,0.327214 -0.15933,0.457321 -0.0953,1.143 0.0611,0.654409 0.13283,0.905528 0.46515,1.62808 0.21611,0.469879 0.41761,0.984229 0.44778,1.143 0.0302,0.158772 0.0859,0.349691 0.12383,0.424265 0.14229,0.279663 0.33033,1.409563 0.32969,1.981073 -6.8e-4,0.61341 -0.17668,2.24484 -0.33793,3.13267 -0.19212,1.05781 -0.66012,2.30211 -1.28969,3.429 -0.50151,0.89768 -1.13719,2.08526 -1.1874,2.21835 -0.14519,0.38478 -1.71083,2.88041 -2.08741,3.32732 -0.5532,0.65652 -0.81557,1.04905 -0.87717,1.312318 -0.0272,0.11642 -0.12985,0.44027 -0.22803,0.71967 -0.0982,0.2794 -0.25597,0.8128 -0.35065,1.18533 -0.0947,0.37254 -0.27235,0.84879 -0.39482,1.05834 -0.12247,0.20955 -0.30587,0.55245 -0.40755,0.762 -0.28273,0.58264 -0.91863,1.38294 -1.5146,1.90618 -0.45549,0.39989 -0.55064,0.5327 -0.62361,0.87036 -0.094,0.43483 -0.0752,1.28458 0.0573,2.59979 0.12583,1.24887 0.30113,1.69336 0.9786,2.48138 0.35578,0.41384 1.33479,2.2862 1.46347,2.79889 0.0284,0.11312 0.15989,0.41913 0.29224,0.68003 0.13234,0.2609 0.2411,0.5402 0.24169,0.62066 9.6e-4,0.13122 0.16606,0.53428 0.58169,1.42004 0.1313,0.27982 0.23325,0.34988 1.11271,0.7647 0.0742,0.035 0.127,0.1733 0.127,0.33289 0,0.22739 0.16265,0.45836 0.97367,1.38268 1.55156,1.76829 2.68678,2.90787 3.61406,3.62791 0.96614,0.75021 1.76814,1.58162 2.14617,2.22487 0.13897,0.23647 0.36978,0.58683 0.5129,0.77858 0.20075,0.26893 0.27088,0.46605 0.30681,0.86234 0.0408,0.4499 0.019,0.56082 -0.1756,0.89284 -0.29419,0.50201 -0.59283,0.66799 -1.70534,0.94783 -0.51223,0.12884 -1.17851,0.3235 -1.48062,0.43256 -0.3021,0.10907 -0.73159,0.22249 -0.9544,0.25205 -0.22281,0.0296 -0.42333,0.0832 -0.4456,0.11924 -0.0223,0.036 0.23577,0.20376 0.57341,0.37275 0.67097,0.33584 0.73011,0.37005 1.41631,0.81945 0.86053,0.56357 1.68178,1.64203 1.57485,2.06809 -0.0294,0.117 -0.2248,0.4631 -0.4343,0.7691 -0.49416,0.72179 -0.87497,1.55222 -1.21805,2.65612 -0.15195,0.48895 -0.42367,1.25095 -0.60382,1.69333 -0.36119,0.88698 -1.19657,3.20697 -1.55481,4.318 -0.0826,0.25612 -0.26477,0.71332 -0.40487,1.016 -0.23702,0.5121 -0.70498,1.90334 -1.03946,3.09034 -0.0787,0.2794 -0.23215,0.75565 -0.34092,1.05833 -0.10877,0.30268 -0.26613,0.78846 -0.34968,1.0795 l -0.1519,0.52917 h -0.40457 c -0.22252,0 -0.40457,-0.0103 -0.40457,-0.0229 0,-0.0838 0.38617,-1.41348 0.58352,-2.00913 0.13114,-0.39582 0.30658,-0.96732 0.38987,-1.27 0.27777,-1.00953 0.61974,-1.99761 0.91086,-2.63182 0.15852,-0.34532 0.35661,-0.8374 0.44021,-1.09352 0.0836,-0.25611 0.20803,-0.63711 0.27652,-0.84666 0.0685,-0.20955 0.1979,-0.54424 0.28758,-0.74376 0.0897,-0.19952 0.25852,-0.65672 0.3752,-1.016 0.11668,-0.35928 0.38723,-1.08712 0.60121,-1.61741 0.21398,-0.5303 0.43705,-1.15895 0.4957,-1.397 0.28262,-1.14708 0.8896,-2.52119 1.41205,-3.19668 0.13124,-0.16969 0.23861,-0.39104 0.23861,-0.4919 0,-0.10483 -0.18822,-0.3824 -0.43939,-0.64798 -0.63487,-0.67129 -1.68189,-1.29325 -3.06083,-1.81825 -0.56481,-0.21504 -0.73716,-0.45064 -0.58075,-0.79391 0.13058,-0.2866 0.63437,-0.52377 1.56125,-0.73499 0.43123,-0.0983 0.85778,-0.21712 0.9479,-0.2641 0.0901,-0.047 0.67453,-0.21181 1.2987,-0.36628 0.62417,-0.15446 1.19814,-0.32845 1.27549,-0.38664 0.49627,-0.37332 0.47935,-0.72318 -0.071,-1.46877 -0.23284,-0.31541 -0.42334,-0.60459 -0.42334,-0.64262 0,-0.038 -0.23812,-0.33469 -0.52916,-0.65926 -0.48592,-0.54189 -1.05211,-1.03325 -1.5875,-1.37769 -0.38926,-0.25042 -2.03346,-1.86514 -2.56356,-2.51759 -0.76148,-0.93723 -1.83752,-2.15147 -2.02003,-2.27947 -0.091,-0.0638 -0.15775,-0.21257 -0.15775,-0.35147 0,-0.18478 -0.0679,-0.28091 -0.29179,-0.413 -0.31953,-0.18853 -0.80886,-0.80643 -0.80889,-1.02144 -1e-5,-0.0745 -0.1128,-0.34501 -0.25064,-0.60113 -0.13785,-0.25611 -0.25214,-0.55756 -0.25398,-0.66989 -0.002,-0.11233 -0.0975,-0.36482 -0.2125,-0.5611 -0.11503,-0.19628 -0.2714,-0.54252 -0.3475,-0.76944 -0.13472,-0.40171 -0.33599,-0.7089 -0.46448,-0.7089 -0.035,0 -0.045,0.29528 -0.0224,0.65617 0.0226,0.36089 -0.018,1.26576 -0.0903,2.01083 -0.26968,2.77925 -0.47708,5.32481 -0.4759,5.841 5.1e-4,0.23229 -0.11014,0.93714 -0.24594,1.56634 -0.1358,0.6292 -0.29223,1.41069 -0.34762,1.73666 -0.0554,0.32597 -0.16864,0.8599 -0.25168,1.18652 -0.083,0.32661 -0.25381,1.22196 -0.37951,1.98966 -0.38769,2.36785 -0.71189,3.7225 -1.25601,5.24815 -0.61138,1.71426 -0.91763,2.11568 -1.61458,2.11635 -0.27884,2.6e-4 -0.38147,-0.0559 -0.67733,-0.37054 -0.59984,-0.63797 -0.76671,-0.83959 -1.19881,-1.44847 -0.57051,-0.80391 -3.12211,-3.53053 -3.59925,-3.84614 -0.21195,-0.14019 -0.48847,-0.37061 -0.61449,-0.51204 -0.26191,-0.29396 -0.39963,-0.31946 -0.58859,-0.10899 -0.42441,0.47274 -0.47767,1.17886 -0.22754,3.01671 0.11257,0.82714 0.11175,0.83825 -0.0734,0.98816 -0.10298,0.0834 -0.23435,0.16743 -0.29193,0.18676 -0.083,0.0279 -0.0828,0.0775 10e-4,0.23952 0.21648,0.41848 0.37854,1.59082 0.42128,3.04755 0.0357,1.21702 0.0187,1.57459 -0.0935,1.96036 -0.0754,0.25951 -0.13716,0.62542 -0.13716,0.81313 0,0.18771 -0.0421,0.44854 -0.0935,0.57963 -0.0809,0.2063 -0.1294,0.80525 -0.28668,3.54035 -0.0161,0.2794 -0.0699,1.17475 -0.11964,1.98966 -0.0497,0.81492 -0.091,1.81505 -0.0917,2.2225 l -0.001,0.74084 h -0.49285 -0.492853 l 0.0155,-0.8255 c 0.008,-0.45403 0.0634,-1.4732 0.121953,-2.26484 0.0585,-0.79163 0.11753,-1.64888 0.13107,-1.905 0.10109,-1.91304 0.32477,-3.66688 0.63523,-4.98085 0.0916,-0.38785 0.16643,-0.88315 0.16619,-1.10066 -7.6e-4,-0.71294 -0.2464,-3.20193 -0.34039,-3.44915 -0.12218,-0.32134 -0.0431,-0.59776 0.18838,-0.65829 l 0.18809,-0.0492 -0.1854,-0.19735 c -0.10196,-0.10854 -0.38621,-0.30878 -0.63166,-0.44499 -0.372023,-0.20645 -0.544983,-0.2481 -1.039793,-0.25042 -0.55066,-0.003 -0.6416,0.0247 -1.25885,0.37789 -0.66996,0.38332 -0.81462,0.55887 -0.81462,0.98857 0,0.11836 -0.0549,0.46831 -0.12199,0.77765 -0.11598,0.5347 -0.27518,1.35708 -0.46127,2.38278 -0.0465,0.25612 -0.10811,0.82762 -0.13698,1.27 -0.0289,0.44239 -0.0871,1.01389 -0.1293,1.27 -0.0422,0.25612 -0.13635,1.03717 -0.20912,1.73567 -0.12077,1.1591 -0.18048,1.64831 -0.47023,3.85233 -0.14004,1.0653 -0.51068,3.33043 -0.55729,3.40586 -0.0223,0.036 -0.24778,0.0655 -0.50115,0.0655 -0.54278,0 -0.52341,0.0826 -0.28802,-1.22767 0.092,-0.51223 0.22295,-1.35043 0.29094,-1.86267 0.20472,-1.54232 0.29106,-2.16227 0.41857,-3.00566 0.0669,-0.44239 0.18239,-1.22344 0.25668,-1.73567 0.0743,-0.51223 0.15479,-0.99478 0.17889,-1.07233 0.0241,-0.0776 0.1162,-0.8205 0.20469,-1.651 0.15505,-1.45512 0.76232,-4.7049 0.94188,-5.04042 0.0931,-0.17392 -0.0371,-0.8221 -0.3401,-1.6929 -0.13996,-0.40228 -0.5158,-1.32485 -0.57695,-1.41623 -0.0131,-0.0195 -0.52849,0.4909 -1.14535,1.13433 -1.19436,1.24581 -2.03743,2.34696 -2.86445,3.74128 -0.60776,1.02466 -0.84481,1.29827 -1.124812,1.29827 -0.501648,0 -0.716761,-0.31055 -0.81938,-1.1829 -0.103327,-0.87836 -0.248043,-1.77806 -0.381715,-2.3731 -0.068,-0.30268 -0.123309,-0.69623 -0.122917,-0.87456 4.23e-4,-0.17832 -0.08855,-0.55932 -0.197649,-0.84667 -0.109098,-0.28734 -0.237988,-0.67484 -0.286422,-0.8611 -0.04843,-0.18627 -0.164492,-0.52917 -0.257908,-0.762 -0.47745,-1.19004 -0.809471,-2.32685 -0.857286,-2.93528 -0.0554,-0.70498 -0.136923,-0.89863 -0.227079,-0.53942 -0.03151,0.12556 -0.152769,0.42533 -0.269458,0.66616 -0.563816,1.16364 -0.612059,1.39944 -0.787436,3.84884 -0.126096,1.76113 -0.144449,2.42528 -0.07721,2.794 0.147645,0.8096 0.272621,2.92196 0.289098,4.88636 0.0086,1.02447 0.06124,3.78412 0.116992,6.13257 0.05575,2.34844 0.07938,4.33917 0.05251,4.42383 -0.03909,0.12317 -0.138104,0.15394 -0.495384,0.15394 h -0.446654 l -0.06626,-1.79917 c -0.03644,-0.98954 -0.07665,-3.87562 -0.08934,-6.4135 -0.01372,-2.74342 -0.0664,-5.14643 -0.129926,-5.92667 -0.183794,-2.25744 -0.112415,-4.61041 0.185823,-6.12559 0.175936,-0.89384 0.222538,-1.04258 0.693688,-2.21407 0.731164,-1.81801 0.973725,-2.6213 1.113149,-3.68644 0.331433,-2.53199 0.449421,-2.9599 0.816141,-2.9599 0.298352,0 0.323336,0.25172 0.155901,1.57075 -0.197667,1.5572 -0.204744,1.9324 -0.03904,2.06992 0.104503,0.0867 0.127,0.38248 0.127,1.66949 v 1.56409 l 0.345788,0.98671 c 0.190183,0.54269 0.422776,1.17721 0.516873,1.41004 0.363877,0.90037 0.732872,2.05393 0.812487,2.54 0.335191,2.04643 0.485544,2.83634 0.539874,2.83634 0.03453,0 0.240412,-0.2746 0.457512,-0.61021 0.89233,-1.3794 1.45714,-2.01471 4.45403,-5.01002 1.71832,-1.7174 3.11331,-3.13102 3.09999,-3.14136 -0.0133,-0.0104 -0.34737,-0.17903 -0.74233,-0.37485 -0.39496,-0.19583 -0.85215,-0.45861 -1.01598,-0.58397 -0.16383,-0.12536 -0.43123,-0.299 -0.59423,-0.38586 -0.16299,-0.0869 -0.544,-0.33847 -0.84668,-0.55912 -0.30268,-0.22065 -0.79798,-0.54261 -1.10067,-0.71546 -0.74602,-0.42602 -2.79847,-2.41033 -3.48669,-3.37092 -0.2011,-0.28069 -0.528591,-0.71361 -0.727754,-0.96205 -0.199163,-0.24843 -0.484952,-0.74512 -0.635087,-1.10374 -0.35353,-0.84448 -0.484314,-0.89473 -0.484938,-0.18633 -8.47e-4,0.96251 -0.293662,1.58533 -0.891438,1.89611 -0.228037,0.11856 -0.344943,0.24079 -0.36439,0.381 -0.01647,0.11874 -0.34018,0.53324 -0.762,0.9757 -0.781063,0.81928 -2.596995,2.86987 -3.301006,3.72757 -0.233622,0.28462 -0.737881,0.79897 -1.120577,1.143 -0.382697,0.34403 -0.976382,0.88072 -1.319302,1.19266 -0.342919,0.31193 -1.011805,0.90147 -1.486414,1.31009 -1.217246,1.048 -2.449049,2.23948 -2.416433,2.33733 0.044,0.132 1.384215,0.56909 1.744979,0.56909 0.235966,0 1.178514,0.31256 1.42922,0.47395 0.106898,0.0688 0.1905,0.20818 0.1905,0.31758 0,0.306 -0.326241,0.5311 -1.031531,0.71173 -0.520116,0.1332 -0.776342,0.26129 -1.278097,0.63892 -0.34516,0.25977 -0.684442,0.56033 -0.753958,0.6679 -0.308762,0.47779 -0.575192,1.5531 -0.666285,2.68912 -0.03566,0.44466 -0.105507,1.03707 -0.155224,1.31647 -0.120244,0.67575 -0.137693,5.72068 -0.02606,7.53533 0.0487,0.79164 0.116221,1.92511 0.150051,2.51884 l 0.06151,1.0795 H 76.60152 76.129545 Z m 32.684029,-13.55976 c 0.36705,-0.80558 1.05137,-3.18835 1.29106,-4.4954 0.22361,-1.21934 1.12203,-5.59105 1.27888,-6.223 0.19181,-0.77284 0.24653,-1.08032 0.36912,-2.07434 0.0689,-0.5588 0.183,-1.41605 0.25351,-1.905 0.0705,-0.48895 0.16531,-1.21285 0.21066,-1.60866 0.0454,-0.39582 0.12052,-0.91905 0.16703,-1.16274 0.0465,-0.24369 0.10541,-0.91044 0.13089,-1.48166 0.0255,-0.57123 0.0649,-1.35293 0.0876,-1.7371 0.0459,-0.77592 -0.005,-0.84021 -0.36838,-0.46424 -0.6303,0.65243 -1.9282,2.09764 -2.50461,2.78886 -0.35749,0.42871 -1.25535,1.36216 -1.99524,2.07434 -1.67339,1.61071 -4.07242,4.1779 -5.11786,5.47659 -0.4352,0.54062 -1.02532,1.24965 -1.31138,1.57561 -0.55581,0.63334 -0.93889,1.23897 -0.93889,1.48433 0,0.14791 0.98299,0.92478 2.07433,1.63938 0.2794,0.18295 0.72925,0.53603 0.99966,0.78463 0.27041,0.2486 0.54142,0.452 0.60225,0.452 0.0608,0 0.29285,0.20002 0.51562,0.4445 0.22278,0.24447 0.87344,0.94036 1.44593,1.54642 0.86799,0.9189 1.34968,1.50464 2.44744,2.97616 0.12658,0.16969 0.25879,0.1366 0.36235,-0.0907 z m -7.97061,-2.99257 c -0.011,-1.13414 -0.005,-1.1755 0.2323,-1.60374 0.13399,-0.24177 0.29591,-0.45965 0.35984,-0.48418 0.0639,-0.0245 0.11622,-0.0815 0.11622,-0.12657 0,-0.0785 -1.14264,-0.98009 -1.862403,-1.46945 -0.18911,-0.12858 -0.37791,-0.32339 -0.41955,-0.43291 -0.0847,-0.22287 -0.0211,-0.87912 0.092,-0.94904 0.12378,-0.0765 0.081,-0.37394 -0.0538,-0.37394 -0.0745,0 -0.12804,0.0787 -0.12951,0.1905 -0.001,0.11203 -0.19765,0.39974 -0.47628,0.6985 -0.26057,0.2794 -0.79887,0.90805 -1.19623,1.397 -0.39736,0.48895 -0.87836,1.05336 -1.06889,1.25425 l -0.34643,0.36526 0.23415,0.17193 c 0.32323,0.23734 0.98455,1.71262 0.99144,2.21171 0.004,0.25266 0.23408,0.25917 0.64524,0.0182 0.33779,-0.19796 0.48656,-0.22972 1.08891,-0.23249 0.61511,-0.003 0.75678,0.0273 1.197293,0.25456 0.2748,0.14178 0.52378,0.26155 0.55328,0.26617 0.0295,0.005 0.0485,-0.51548 0.0423,-1.15577 z m -1.108273,-5.955 c 0.0743,-0.14363 0.371613,-0.53416 0.660743,-0.86783 0.28913,-0.33367 0.90561,-1.08177 1.36996,-1.66244 0.46434,-0.58068 1.35861,-1.6031 1.98726,-2.27205 0.62865,-0.66896 1.30026,-1.39401 1.49247,-1.61123 0.1922,-0.21722 0.96024,-0.96021 1.70675,-1.65109 0.74651,-0.69088 1.61795,-1.56651 1.93654,-1.94586 0.53612,-0.63837 0.8763,-1.00963 2.67474,-2.91909 0.36089,-0.38316 0.65617,-0.73684 0.65617,-0.78594 0,-0.0491 -0.0904,-0.21055 -0.20085,-0.35878 -0.36295,-0.48704 -0.64642,-1.35972 -0.74108,-2.28144 -0.18987,-1.84885 -0.13798,-2.82592 0.18353,-3.45614 0.0877,-0.17192 0.34922,-0.45188 0.58114,-0.62213 0.57941,-0.42532 1.01468,-0.96856 1.53306,-1.91331 0.42461,-0.77386 0.92511,-2.25276 0.95817,-2.83125 0.014,-0.24502 0.005,-0.25078 -0.34419,-0.22645 -0.50575,0.0352 -1.17012,-0.1797 -1.78594,-0.577728 -0.34887,-0.22549 -0.53879,-0.30534 -0.56001,-0.23547 -0.0755,0.24859 -0.2401,1.010538 -0.43296,2.003968 -0.19195,0.98868 -0.31846,1.55998 -0.53686,2.42427 -0.0477,0.18874 -0.20656,0.62689 -0.35304,0.97367 -0.69344,1.64161 -1.31804,2.27011 -3.12335,3.14282 -0.67322,0.32545 -1.60667,0.71747 -2.07433,0.87117 -1.49687,0.49194 -3.02094,1.29553 -3.83184,2.02039 -0.17625,0.15755 -0.58715,0.45191 -0.91312,0.65413 -0.32596,0.20221 -0.706963,0.45069 -0.846663,0.55218 -0.56383,0.40957 -1.69454,0.54995 -4.10634,0.5098 -3.26215,-0.0543 -4.37182,-0.1829 -4.85452,-0.5626 -0.292572,-0.23014 -0.380838,-0.20743 -0.428054,0.1101 -0.06719,0.45187 -0.291325,2.02182 -0.353558,2.4765 -0.03187,0.23283 -0.05164,0.79633 -0.04393,1.25222 0.01288,0.76204 0.04081,0.89067 0.346289,1.59499 0.182752,0.42136 0.458145,0.90561 0.611983,1.07611 0.15384,0.17051 0.37208,0.46241 0.48497,0.64868 0.27344,0.45113 1.40609,1.70529 1.79754,1.99035 0.17181,0.12512 0.48475,0.42943 0.69542,0.67624 0.24208,0.2836 0.6975,0.64544 1.23748,0.98318 0.46994,0.29394 0.9952,0.64418 1.16724,0.77832 0.50009,0.3899 2.04968,1.40916 2.54598,1.67463 0.25034,0.13391 0.5119,0.33005 0.58124,0.43587 0.0693,0.10583 0.13975,0.19241 0.15649,0.19241 0.0167,0 0.0912,-0.11753 0.16547,-0.26117 z m -1.59099,-13.92 c 0.84838,-0.1206 0.88769,-0.13622 1.73566,-0.68978 0.477203,-0.31151 1.037393,-0.71465 1.244873,-0.89588 0.8285,-0.72366 2.46915,-1.58174 3.88016,-2.02939 0.44698,-0.1418 1.17687,-0.42923 1.62198,-0.63874 0.4451,-0.2095 0.8966,-0.4142 1.00333,-0.45489 0.35627,-0.13584 1.18361,-0.74433 1.45208,-1.06798 0.70967,-0.85551 1.26301,-2.39353 1.65335,-4.59551 0.0784,-0.44238 0.19375,-1.03293 0.25629,-1.31233 0.0626,-0.279398 0.2153,-0.984248 0.33946,-1.566328 0.12415,-0.58209 0.2749,-1.24884 0.33499,-1.48167 0.0601,-0.23283 0.25683,-0.99483 0.43719,-1.69333 0.34956,-1.3538 0.42246,-2.37237 0.21529,-3.00826 -0.0526,-0.16156 -0.10575,-0.54139 -0.11802,-0.84408 -0.02,-0.49293 0.003,-0.58337 0.21949,-0.86709 l 0.24181,-0.31677 -0.14339,-0.36057 c -0.0789,-0.19831 -0.26367,-0.57012 -0.41067,-0.82623 -0.147,-0.25612 -0.35067,-0.78952 -0.4526,-1.18534 -0.27224,-1.05715 -0.5043,-1.8448 -0.64566,-2.191494 -0.16368,-0.40144 -0.53619,-1.356897 -0.78875,-2.023085 -0.11084,-0.292371 -0.31137,-0.768621 -0.44561,-1.058333 -0.13425,-0.289713 -0.27292,-0.622 -0.30816,-0.738416 -0.0352,-0.116417 -0.16838,-0.345017 -0.29585,-0.508 -0.33113,-0.423364 -0.74341,-1.275076 -0.8477,-1.751214 -0.1682,-0.767916 -0.63958,-1.553646 -1.33945,-2.232695 -0.6178,-0.599414 -0.98924,-1.172684 -1.27205,-1.963242 -0.4223,-1.180453 -0.53978,-1.434164 -0.80369,-1.735579 -0.22305,-0.254747 -0.28115,-0.275937 -0.75659,-0.275937 -0.28325,0 -0.75559,0.06034 -1.04965,0.134089 -0.38113,0.09558 -0.82206,0.125974 -1.53543,0.105833 -0.97261,-0.02746 -1.01846,-0.03747 -1.629753,-0.355831 -0.69122,-0.359993 -1.70825,-1.002476 -2.0019,-1.264657 -0.2392,-0.21356 -0.92808,-0.448516 -1.63274,-0.556874 -0.76117,-0.117047 -4.81308,-0.186534 -5.588004,-0.09583 -1.334834,0.156242 -1.557817,0.218768 -2.777846,0.778929 -0.386932,0.177654 -0.734558,0.323008 -0.772503,0.323008 -0.26897,0 -1.59798,0.929801 -2.136403,1.494669 -0.450192,0.472304 -1.053938,1.410453 -1.20533,1.87294 -0.200653,0.612971 -0.372064,1.96278 -0.293599,2.312002 0.0375,0.166901 0.05717,1.024191 0.04371,1.90509 -0.02059,1.347444 -0.05908,1.758549 -0.242485,2.590366 -0.119906,0.543804 -0.246462,1.03477 -0.281237,1.091037 -0.03477,0.05627 -0.09081,0.335237 -0.124533,0.619932 -0.0929,0.784386 -0.250399,1.703672 -0.436823,2.549632 -0.196725,0.89271 -0.362365,2.74349 -0.337196,3.76767 0.01622,0.65991 -0.04911,1.07638 -0.2495,1.59059 -0.06519,0.16728 -0.03421,0.21792 0.227917,0.37258 0.261916,0.15454 0.295321,0.20906 0.244512,0.39907 -0.131341,0.4912 -0.134974,1.25473 -0.0093,1.94678 0.0728,0.40075 0.148878,0.86199 0.16907,1.02498 0.02019,0.16298 0.09979,0.56303 0.17688,0.889 0.07709,0.32596 0.172551,0.80696 0.212134,1.06888 0.08282,0.54804 0.372876,1.84892 0.563988,2.529448 0.175847,0.62616 0.626257,1.29414 1.113173,1.65089 0.220184,0.16131 0.495585,0.43109 0.612001,0.59951 0.207854,0.30069 0.912605,1.20368 1.702545,2.18147 0.21989,0.27218 0.424169,0.59197 0.453953,0.71064 0.08932,0.35588 0.785079,1.69825 1.055139,2.03574 0.138523,0.17311 0.349523,0.5243 0.468889,0.78041 0.603535,1.29497 1.114337,2.1658 1.357141,2.3137 1.244326,0.75794 1.242066,0.75703 2.074336,0.83796 0.6728,0.0654 2.04497,0.13124 4.52966,0.21725 0.23284,0.008 0.81396,-0.0409 1.29138,-0.10874 z M 114.52161,99.327322 c 0.22812,-0.18728 0.64711,-0.82235 0.79475,-1.20462 0.26838,-0.69491 0.77876,-1.61496 1.24532,-2.2449 2.13873,-2.88768 2.37641,-3.40085 2.41114,-5.20576 0.0239,-1.24027 -0.10177,-1.79103 -0.4732,-2.07433 -0.5843,-0.44567 -1.20325,-0.57593 -1.64157,-0.34547 -0.52788,0.27756 -1.78706,1.87763 -2.2707,2.88546 -0.15643,0.32597 -0.4599,0.82127 -0.67439,1.10067 -0.44745,0.58288 -0.62774,0.95267 -0.62819,1.28845 -1.7e-4,0.12955 -0.0737,0.35596 -0.16348,0.50314 -0.0897,0.14717 -0.22493,0.52817 -0.30041,0.84667 -0.0755,0.31849 -0.19151,0.80767 -0.25784,1.08707 -0.0663,0.2794 -0.18074,0.79375 -0.25425,1.143 -0.0735,0.34925 -0.16715,0.76226 -0.20809,0.9178 -0.0409,0.15553 -0.0533,0.33786 -0.0275,0.40517 0.0629,0.1639 1.06675,0.87484 1.35979,0.96301 0.40049,0.12051 0.89862,0.0906 1.0886,-0.0654 z m -1.18047,-7.32178 c 0.31373,-0.35107 0.55326,-0.74643 0.70692,-1.16684 0.19043,-0.521 1.37383,-2.19518 1.91904,-2.7149 0.64861,-0.6183 0.97653,-0.78028 1.49292,-0.73742 0.92345,0.0766 1.91632,0.72741 2.07234,1.35831 0.21585,0.87279 0.27672,1.3471 0.22719,1.77032 l -0.053,0.45336 0.21829,-0.45291 c 0.12006,-0.2491 0.219,-0.5539 0.21986,-0.67733 8.5e-4,-0.12344 0.0553,-0.52923 0.12103,-0.90176 0.2072,-1.1747 0.24921,-2.62595 0.0956,-3.302002 -0.27431,-1.20716 -0.56446,-2.004899 -1.0692,-2.939704 -0.0433,-0.08014 -0.1019,-0.423038 -0.13029,-0.762 -0.0284,-0.338963 -0.0861,-0.754251 -0.12814,-0.922865 -0.0641,-0.256727 -0.0388,-0.387497 0.15562,-0.804333 0.20789,-0.445772 0.23056,-0.583387 0.21698,-1.317501 -0.012,-0.646914 -0.0594,-0.932514 -0.22493,-1.354667 -0.25608,-0.653016 -0.4221,-1.195355 -0.60433,-1.974263 -0.0763,-0.325966 -0.22959,-0.726016 -0.34072,-0.889 -0.26973,-0.395615 -0.47214,-1.196216 -0.46021,-1.820333 0.0172,-0.901588 0.008,-0.936567 -0.35437,-1.34829 -0.19291,-0.219154 -0.56597,-0.805543 -0.82902,-1.303086 -0.3934,-0.744089 -0.55142,-0.957211 -0.89042,-1.200957 -0.22668,-0.162984 -0.68897,-0.548766 -1.02731,-0.857294 -0.45478,-0.414706 -0.78626,-0.632186 -1.27138,-0.834143 -0.87244,-0.363199 -1.16695,-0.56998 -1.76147,-1.23678 -0.50698,-0.568623 -0.67257,-0.954613 -0.78865,-1.838416 -0.0531,-0.404078 -0.15411,-0.471179 -1.57448,-1.045776 -1.06011,-0.428853 -1.36624,-0.512613 -2.55553,-0.699224 -0.2794,-0.04384 -1.06045,-0.272339 -1.73567,-0.507775 -0.67521,-0.235435 -1.30577,-0.428783 -1.40123,-0.429662 -0.0955,-8.78e-4 -0.20976,-0.03758 -0.254,-0.08157 -0.0442,-0.04399 -0.40428,-0.154941 -0.8001,-0.246568 -0.39582,-0.09163 -0.92922,-0.247764 -1.18533,-0.346972 -0.46616,-0.180566 -0.6771,-0.233735 -1.862673,-0.469487 -0.34925,-0.06945 -0.80645,-0.160723 -1.016,-0.202833 -0.86052,-0.172925 -3.46184,-0.287439 -5.28506,-0.232656 -2.11093,0.06343 -3.349096,0.265061 -4.832609,0.78698 -0.465666,0.163828 -1.278759,0.4264 -1.806872,0.583493 -0.528113,0.157094 -1.118663,0.379422 -1.312333,0.494063 -0.647544,0.383306 -1.211896,1.069885 -1.625562,1.977623 -0.06868,0.150702 -0.394656,0.675301 -0.724398,1.165776 -0.569914,0.847717 -0.840545,1.127621 -1.939168,2.00561 -0.557121,0.445235 -1.312136,1.411501 -1.740336,2.227277 -0.1711,0.325967 -0.366206,0.655399 -0.43357,0.732071 -0.262392,0.298652 -0.383756,2.335538 -0.164724,2.764634 0.338073,0.662306 0.340584,1.663663 0.0084,3.361295 -0.183439,0.937551 -0.308672,2.830581 -0.210003,3.174441 0.04668,0.162676 0.08487,0.459469 0.08487,0.65954 0,0.200071 0.07527,0.511306 0.167266,0.691634 0.092,0.180327 0.264194,0.585381 0.382661,0.900119 0.118467,0.314738 0.246077,0.613355 0.283577,0.663592 0.11433,0.153164 0.254356,0.738887 0.315329,1.319007 0.03181,0.302684 0.148289,0.831422 0.258838,1.174974 0.110547,0.343553 0.202346,0.819803 0.203996,1.058333 0.0017,0.238535 0.05745,0.528945 0.124,0.645365 0.136332,0.23848 0.16677,1.0697 0.05038,1.37583 -0.04214,0.11083 -0.103594,0.41742 -0.136564,0.6813 -0.05647,0.452 -0.04836,0.48429 0.140119,0.55752 0.110034,0.0427 0.344629,0.17679 0.521323,0.29787 0.395817,0.27123 0.566191,0.28005 0.572662,0.0296 0.01244,-0.48133 0.242799,-2.22681 0.405052,-3.06917 0.09867,-0.51223 0.255663,-1.35043 0.348881,-1.862664 0.09322,-0.512233 0.226761,-1.178983 0.296763,-1.481666 0.375142,-1.62209 0.383435,-1.771964 0.278735,-5.037667 -0.02435,-0.759532 0.201776,-1.99589 0.471087,-2.575692 0.515034,-1.108816 1.430901,-2.170039 2.483502,-2.87765 0.286702,-0.192735 0.997451,-0.555773 1.579443,-0.806751 0.581991,-0.250978 1.147517,-0.506414 1.256723,-0.567636 0.42604,-0.238837 2.460662,-0.534307 3.585222,-0.52065 0.4191,0.0051 1.6002,0.04356 2.62467,0.08549 1.68953,0.06915 1.9335,0.09857 2.62467,0.316501 0.50984,0.160757 0.88808,0.34246 1.143,0.549091 0.53422,0.433023 1.39399,0.971972 1.970883,1.235454 0.45647,0.208481 0.54716,0.220342 1.35467,0.177173 0.47599,-0.02545 1.05594,-0.08361 1.28878,-0.129252 0.67545,-0.132407 1.70655,-0.112484 1.99875,0.03862 0.28487,0.147313 0.86256,0.9849 1.00825,1.461864 0.0523,0.17129 0.12923,0.387636 0.17092,0.48077 0.0417,0.09313 0.15143,0.391215 0.24388,0.662405 0.15937,0.467469 0.4106,0.822385 1.05937,1.496595 0.69704,0.724363 1.40316,1.918937 1.40316,2.373773 0,0.296071 0.42076,1.178472 0.82004,1.719782 0.20091,0.272373 0.36529,0.533005 0.36529,0.579182 0,0.04618 0.14793,0.432927 0.32872,0.859444 1.01908,2.404131 1.47871,3.711854 1.9223,5.469204 0.0757,0.29978 0.22466,0.683 0.3311,0.8516 0.24553,0.38894 0.63522,1.35787 0.63522,1.57941 0,0.0928 -0.11324,0.31843 -0.25165,0.50136 -0.25549,0.33767 -0.30564,0.61531 -0.20344,1.12633 0.0626,0.31288 0.19286,0.33551 0.42648,0.0741 z m 21.49945,56.980658 c -0.30363,-1.98128 -0.32719,-2.31463 -0.33066,-4.67783 -0.003,-2.35441 0.1151,-4.12082 0.36935,-5.50334 0.0428,-0.23283 0.13774,-0.76623 0.21094,-1.18533 0.28848,-1.65179 0.81195,-3.78855 1.38114,-5.63776 0.25108,-0.81571 0.32164,-1.00357 0.90346,-2.40557 0.41489,-0.99972 1.43473,-3.03575 1.75173,-3.49716 0.13773,-0.20047 0.23148,-0.41384 0.20833,-0.47415 -0.0231,-0.0603 -0.22719,-0.13158 -0.45345,-0.15838 -0.22625,-0.0268 -0.58206,-0.1109 -0.79069,-0.18689 -0.20863,-0.076 -0.62697,-0.19559 -0.92965,-0.26577 -1.65377,-0.38343 -2.47374,-0.55758 -3.00567,-0.63838 -0.32597,-0.0495 -0.74507,-0.14735 -0.93133,-0.21742 -0.18627,-0.0701 -0.66252,-0.17765 -1.05834,-0.23906 -0.39581,-0.0614 -1.09365,-0.16877 -1.55075,-0.23856 -1.16597,-0.17803 -1.28165,-0.20448 -2.08991,-0.47788 -0.76883,-0.26006 -1.37593,-0.55601 -1.80751,-0.88113 -0.14675,-0.11056 -0.63272,-0.37113 -1.07993,-0.57905 -0.44721,-0.20792 -1.04569,-0.53597 -1.32996,-0.72902 -0.28427,-0.19304 -0.62322,-0.39112 -0.75323,-0.44017 -0.13,-0.0491 -0.64132,-0.29514 -1.13626,-0.54685 -0.49494,-0.25171 -1.04739,-0.49528 -1.22767,-0.54127 -0.18028,-0.046 -0.55638,-0.14523 -0.83578,-0.22056 -0.2794,-0.0753 -0.67247,-0.17162 -0.87349,-0.21397 -0.45931,-0.0968 -0.52351,-0.13732 -0.52351,-0.33071 0,-0.0989 0.0976,-0.19007 0.26634,-0.2489 0.44253,-0.15427 2.40158,0.39461 3.63724,1.01906 0.54042,0.2731 1.02029,0.49655 1.06638,0.49655 0.0461,0 0.32782,0.15856 0.62608,0.35236 0.29826,0.1938 0.94235,0.54325 1.4313,0.77654 0.48895,0.2333 1.00631,0.51244 1.14969,0.62032 0.67781,0.50996 1.90811,0.96693 3.04131,1.12965 0.37253,0.0535 0.88688,0.1378 1.143,0.18735 0.25611,0.0496 0.71331,0.11711 1.016,0.15013 0.30268,0.033 0.77537,0.14199 1.05042,0.24217 0.27505,0.10018 0.6239,0.18215 0.77522,0.18215 0.15132,0 0.72638,0.11055 1.27791,0.24568 0.55153,0.13512 1.30758,0.31201 1.68011,0.39309 0.37254,0.0811 0.79164,0.19569 0.93134,0.2547 0.52242,0.22069 1.03497,0.30881 1.81831,0.31262 0.65433,0.003 0.83343,0.0319 0.94998,0.1525 0.0853,0.0883 0.39469,0.18985 0.762,0.25023 1.10368,0.18142 1.63367,0.39632 2.15698,0.87459 0.26208,0.23953 0.52663,0.55545 0.58788,0.70204 0.17678,0.42308 0.3159,1.7661 0.20451,1.97423 -0.10924,0.20414 -0.36083,0.22786 -0.51001,0.0481 -0.089,-0.10728 -0.23866,-1.00599 -0.25094,-1.50724 -0.002,-0.0835 -0.1782,-0.33834 -0.39148,-0.56635 -0.30305,-0.32398 -0.50423,-0.45217 -0.92089,-0.58678 -0.47925,-0.15483 -1.84235,-0.43075 -2.12801,-0.43075 -0.60673,0 -2.40594,3.9834 -3.2888,7.28134 -0.67004,2.50291 -1.05026,4.38749 -1.40071,6.94266 -0.18994,1.38493 -0.2817,4.53002 -0.18242,6.25268 0.0527,0.91501 0.13308,1.81606 0.17855,2.00232 0.0455,0.18627 0.0836,0.5006 0.0847,0.6985 l 0.002,0.35984 h -0.41949 c -0.40819,0 -0.42064,-0.007 -0.46167,-0.27517 z m 12.17184,0 c -0.17124,-0.32796 -0.18154,-1.00013 -0.0309,-2.01875 0.065,-0.43959 0.0844,-1.01931 0.0506,-1.51608 -0.0301,-0.44239 -0.0669,-1.12819 -0.0819,-1.524 -0.015,-0.39629 -0.0856,-0.85652 -0.15713,-1.02424 -0.0714,-0.16751 -0.15602,-0.51041 -0.18792,-0.762 -0.084,-0.6619 -0.27204,-1.56063 -0.459,-2.1931 -0.18486,-0.62539 -0.31138,-0.91495 -1.51668,-3.47133 -0.28459,-0.6036 -0.35925,-1.65347 -0.32069,-4.5099 0.0226,-1.6743 0.0527,-2.12912 0.14456,-2.18734 0.15583,-0.0987 0.18427,-0.0954 0.37503,0.0439 0.15559,0.11364 0.1666,0.27329 0.20668,2.99726 l 0.0423,2.87723 0.64726,1.29957 c 0.86122,1.72915 1.01223,2.06953 1.13997,2.56957 0.0595,0.23284 0.19119,0.70909 0.29268,1.05834 0.17517,0.60272 0.18651,0.83835 0.22301,4.6355 0.0344,3.57495 0.0245,4.0005 -0.0929,4.0005 -0.0722,0 -0.196,-0.12383 -0.27502,-0.27517 z"
       id="path194" /></g></svg>
